<mxfile host="app.diagrams.net" modified="2024-02-06T22:24:57.172Z" agent="Mozilla/5.0 (Windows NT 10.0; Win64; x64) AppleWebKit/537.36 (KHTML, like Gecko) Chrome/120.0.0.0 Safari/537.36 Edg/120.0.0.0" etag="Vjus3WZnPgB2di_fciuU" version="23.0.2" type="github">
  <diagram name="StrÃ¡nka-1" id="Ga1OhwVBPZ968H5cjs24">
    <mxGraphModel dx="2261" dy="863" grid="1" gridSize="10" guides="1" tooltips="1" connect="1" arrows="1" fold="1" page="1" pageScale="1" pageWidth="827" pageHeight="1169" math="0" shadow="0">
      <root>
        <mxCell id="0" />
        <mxCell id="1" parent="0" />
        <mxCell id="9jIiAXSumbkcq5AqeXTl-1" value="MCH" style="swimlane;whiteSpace=wrap;html=1;" vertex="1" parent="1">
          <mxGeometry x="90" y="280" width="210" height="60" as="geometry" />
        </mxCell>
        <mxCell id="9jIiAXSumbkcq5AqeXTl-2" value="IP" style="swimlane;whiteSpace=wrap;html=1;" vertex="1" parent="1">
          <mxGeometry x="80" y="430" width="580" height="90" as="geometry" />
        </mxCell>
        <mxCell id="9jIiAXSumbkcq5AqeXTl-3" value="GIB" style="rounded=0;whiteSpace=wrap;html=1;" vertex="1" parent="1">
          <mxGeometry x="70" y="110" width="70" height="60" as="geometry" />
        </mxCell>
        <mxCell id="9jIiAXSumbkcq5AqeXTl-4" value="SPB" style="rounded=0;whiteSpace=wrap;html=1;" vertex="1" parent="1">
          <mxGeometry x="180" y="110" width="120" height="60" as="geometry" />
        </mxCell>
        <mxCell id="9jIiAXSumbkcq5AqeXTl-5" value="ICH" style="swimlane;whiteSpace=wrap;html=1;" vertex="1" parent="1">
          <mxGeometry x="490" y="280" width="200" height="60" as="geometry" />
        </mxCell>
        <mxCell id="9jIiAXSumbkcq5AqeXTl-6" value="UniFE" style="rounded=0;whiteSpace=wrap;html=1;" vertex="1" parent="1">
          <mxGeometry x="570" y="160" width="120" height="60" as="geometry" />
        </mxCell>
        <mxCell id="9jIiAXSumbkcq5AqeXTl-7" value="TRS" style="shape=cylinder3;whiteSpace=wrap;html=1;boundedLbl=1;backgroundOutline=1;size=15;" vertex="1" parent="1">
          <mxGeometry x="110" y="600" width="60" height="80" as="geometry" />
        </mxCell>
        <mxCell id="9jIiAXSumbkcq5AqeXTl-8" value="RPC" style="shape=cylinder3;whiteSpace=wrap;html=1;boundedLbl=1;backgroundOutline=1;size=15;" vertex="1" parent="1">
          <mxGeometry x="280" y="600" width="60" height="80" as="geometry" />
        </mxCell>
        <mxCell id="9jIiAXSumbkcq5AqeXTl-9" value="" style="endArrow=classic;startArrow=classic;html=1;rounded=0;entryX=0.25;entryY=1;entryDx=0;entryDy=0;strokeColor=#3333FF;" edge="1" parent="1" target="9jIiAXSumbkcq5AqeXTl-2">
          <mxGeometry width="50" height="50" relative="1" as="geometry">
            <mxPoint x="160" y="600" as="sourcePoint" />
            <mxPoint x="210" y="550" as="targetPoint" />
          </mxGeometry>
        </mxCell>
        <mxCell id="9jIiAXSumbkcq5AqeXTl-10" value="" style="endArrow=classic;startArrow=classic;html=1;rounded=0;entryX=0.25;entryY=1;entryDx=0;entryDy=0;strokeColor=#3333FF;" edge="1" parent="1" target="9jIiAXSumbkcq5AqeXTl-2">
          <mxGeometry width="50" height="50" relative="1" as="geometry">
            <mxPoint x="300" y="600" as="sourcePoint" />
            <mxPoint x="350" y="550" as="targetPoint" />
          </mxGeometry>
        </mxCell>
        <mxCell id="9jIiAXSumbkcq5AqeXTl-11" value="" style="endArrow=classic;startArrow=classic;html=1;rounded=0;exitX=0.106;exitY=-0.03;exitDx=0;exitDy=0;exitPerimeter=0;" edge="1" parent="1" source="9jIiAXSumbkcq5AqeXTl-2">
          <mxGeometry width="50" height="50" relative="1" as="geometry">
            <mxPoint x="115" y="430" as="sourcePoint" />
            <mxPoint x="140" y="340" as="targetPoint" />
          </mxGeometry>
        </mxCell>
        <mxCell id="9jIiAXSumbkcq5AqeXTl-12" value="" style="endArrow=classic;startArrow=classic;html=1;rounded=0;exitX=0.106;exitY=-0.03;exitDx=0;exitDy=0;exitPerimeter=0;entryX=0.532;entryY=0.65;entryDx=0;entryDy=0;entryPerimeter=0;" edge="1" parent="1" target="9jIiAXSumbkcq5AqeXTl-20">
          <mxGeometry width="50" height="50" relative="1" as="geometry">
            <mxPoint x="211" y="280" as="sourcePoint" />
            <mxPoint x="90" y="260" as="targetPoint" />
          </mxGeometry>
        </mxCell>
        <mxCell id="9jIiAXSumbkcq5AqeXTl-13" value="" style="endArrow=classic;startArrow=classic;html=1;rounded=0;exitX=0.106;exitY=-0.03;exitDx=0;exitDy=0;exitPerimeter=0;" edge="1" parent="1">
          <mxGeometry width="50" height="50" relative="1" as="geometry">
            <mxPoint x="141" y="607" as="sourcePoint" />
            <mxPoint x="140" y="520" as="targetPoint" />
          </mxGeometry>
        </mxCell>
        <mxCell id="9jIiAXSumbkcq5AqeXTl-14" value="GAS" style="rounded=0;whiteSpace=wrap;html=1;" vertex="1" parent="1">
          <mxGeometry x="370" y="280" width="60" height="60" as="geometry" />
        </mxCell>
        <mxCell id="9jIiAXSumbkcq5AqeXTl-15" value="" style="endArrow=classic;startArrow=classic;html=1;rounded=0;entryX=-0.056;entryY=0.644;entryDx=0;entryDy=0;entryPerimeter=0;dashed=1;dashPattern=8 8;" edge="1" parent="1" target="9jIiAXSumbkcq5AqeXTl-14">
          <mxGeometry width="50" height="50" relative="1" as="geometry">
            <mxPoint x="300" y="320" as="sourcePoint" />
            <mxPoint x="350" y="270" as="targetPoint" />
          </mxGeometry>
        </mxCell>
        <mxCell id="9jIiAXSumbkcq5AqeXTl-16" value="" style="endArrow=classic;startArrow=classic;html=1;rounded=0;dashed=1;dashPattern=8 8;strokeColor=#FF8000;" edge="1" parent="1">
          <mxGeometry width="50" height="50" relative="1" as="geometry">
            <mxPoint x="430" y="321" as="sourcePoint" />
            <mxPoint x="490" y="320" as="targetPoint" />
          </mxGeometry>
        </mxCell>
        <mxCell id="9jIiAXSumbkcq5AqeXTl-17" value="" style="endArrow=classic;startArrow=classic;html=1;rounded=0;entryX=0.178;entryY=1.033;entryDx=0;entryDy=0;entryPerimeter=0;strokeColor=#FF8000;" edge="1" parent="1">
          <mxGeometry width="50" height="50" relative="1" as="geometry">
            <mxPoint x="620" y="278.02" as="sourcePoint" />
            <mxPoint x="621.3599999999999" y="220.00000000000003" as="targetPoint" />
          </mxGeometry>
        </mxCell>
        <mxCell id="9jIiAXSumbkcq5AqeXTl-18" value="" style="endArrow=classic;startArrow=classic;html=1;rounded=0;entryX=0.178;entryY=1.033;entryDx=0;entryDy=0;entryPerimeter=0;exitX=0.763;exitY=-0.037;exitDx=0;exitDy=0;exitPerimeter=0;strokeColor=#FF8000;" edge="1" parent="1" source="9jIiAXSumbkcq5AqeXTl-2">
          <mxGeometry width="50" height="50" relative="1" as="geometry">
            <mxPoint x="520" y="398.02" as="sourcePoint" />
            <mxPoint x="521.3599999999999" y="340" as="targetPoint" />
          </mxGeometry>
        </mxCell>
        <mxCell id="9jIiAXSumbkcq5AqeXTl-19" value="" style="endArrow=classic;startArrow=classic;html=1;rounded=0;entryX=0.178;entryY=1.033;entryDx=0;entryDy=0;entryPerimeter=0;exitX=0.855;exitY=0;exitDx=0;exitDy=4.35;exitPerimeter=0;strokeColor=#FF8000;" edge="1" parent="1" source="9jIiAXSumbkcq5AqeXTl-8">
          <mxGeometry width="50" height="50" relative="1" as="geometry">
            <mxPoint x="521.64" y="607" as="sourcePoint" />
            <mxPoint x="519.9999999999999" y="520" as="targetPoint" />
          </mxGeometry>
        </mxCell>
        <mxCell id="9jIiAXSumbkcq5AqeXTl-20" value="" style="ellipse;shape=cloud;whiteSpace=wrap;html=1;fillColor=none;strokeColor=#7EA6E0;" vertex="1" parent="1">
          <mxGeometry x="-40" y="40" width="470" height="200" as="geometry" />
        </mxCell>
      </root>
    </mxGraphModel>
  </diagram>
</mxfile>
